<svg xmlns="http://www.w3.org/2000/svg" version="1" width="600" height="600"><path d="M341.2 282.674c-.244 2.04-.69 4.126-1.355 6.245 7.685-24.46-13.947-44.36-36.093-45.03-29.16-.89-50.43 25.93-49.96 53.79.624 36.77 34.653 63.57 70.144 61.93 44.373-2.056 76.356-43.38 73.503-86.49-3.45-51.976-52.12-89.17-102.84-85.078-59.58 4.804-101.99 60.85-96.65 119.182 6.15 67.175 69.58 114.827 135.53 108.222 74.78-7.49 127.67-78.324 119.79-151.877-8.82-82.38-87.063-140.52-168.224-131.37-89.98 10.145-153.373 95.8-142.94 184.57C153.57 414.353 246.646 483 343.02 471.284c105.19-12.783 179.09-113.28 166.09-217.262-14.1-112.79-122.02-191.95-233.61-177.663C155.114 91.784 70.7 207.13 86.274 326.33c14.584 111.62 111.097 197.29 222.85 202.644" fill="none" stroke="#000" stroke-width="13.326" stroke-linecap="round" stroke-linejoin="bevel"/><path d="M309.633 288.14c-8.33 3.454-.375 13.832 4.756 15.636 8.24 2.9 15.91-.828 21.01-6.997 3.35-4.05 5.6-9.15 6.19-14.11 2.575-21.52-17.223-38.17-37.45-38.788-29.16-.887-50.83 25.93-50.357 53.795.623 36.77 34.652 63.57 70.143 61.93 44.373-2.053 76.356-43.38 73.503-86.49-3.44-51.973-52.115-89.166-102.837-85.075-59.576 4.806-101.993 60.85-96.65 119.184 6.152 67.176 69.585 114.83 135.53 108.223 74.777-7.49 127.67-78.324 119.795-151.877-8.82-82.38-87.064-140.52-168.225-131.37-89.98 10.147-153.372 95.8-142.94 184.57 11.465 97.586 104.54 166.23 200.915 154.517 105.19-12.783 179.09-113.28 166.09-217.26C495.01 141.24 387.09 62.083 275.5 76.37 155.118 91.782 70.7 207.13 86.274 326.328 100.86 437.95 197.37 523.62 309.124 528.974" fill="none" stroke="#fff" stroke-width="5.178" stroke-linecap="round" stroke-linejoin="bevel"/><path stroke="#000" stroke-width="3.19" stroke-linecap="round" stroke-linejoin="bevel" stroke-dashoffset="10" d="M304.472 500.542h21.653v45.984h-21.653z"/><path d="M370.84 543.246v7.75l-34.78-.735-11.067 8.83H302.86l-56.185-11.77v-4.07H370.84z" fill-rule="evenodd" stroke="#000" stroke-width=".3"/><path d="M306.96 276.957v49.456" fill="none" stroke="#000" stroke-width="5.327"/><path d="M306.986 158.035v98.536m0-238.16v98.54" fill="none" stroke="#000" stroke-width="5.38"/><path d="M306.96 136.682v.378" fill="none" stroke="#000" stroke-width=".466"/><path d="M306.986 333.024V448.11" fill="none" stroke="#000" stroke-width="5.814"/><path d="M307.203 454.596v81.857" fill="none" stroke="#000" stroke-width="4.904"/><path d="M25.036 293.224h87.27m17.452 0h34.908m17.454 0h87.268" fill="none" stroke="#000" stroke-width="4.334"/><path d="M286.595 293.224h61.868" fill="none" stroke="#000" stroke-width="4.079"/><path d="M374.11 293.224h104.723m17.454 0h34.907" fill="none" stroke="#000" stroke-width="4.334"/><path d="M328.77 312.694c1.905-2.545 4.42-3.817 7.543-3.817 2.668 0 4.87.968 6.603 2.904 1.734 1.94 2.6 4.4 2.6 7.37 0 4.64-1.862 8.86-5.588 12.67-3.726 3.82-7.85 5.72-12.376 5.72-3.258 0-5.948-1.08-8.07-3.23-2.12-2.16-3.18-4.89-3.18-8.2 0-3.59 1.207-6.68 3.623-9.275 2.417-2.595 5.365-3.972 8.844-4.132zm-1.402 2.01c-2.19.53-3.917 1.704-5.183 3.524-1.267 1.82-1.9 4.057-1.9 6.713 0 2.97.86 5.41 2.582 7.34 1.722 1.926 3.916 2.888 6.585 2.888 3.197 0 6.02-1.512 8.466-4.537 2.446-3.025 3.67-6.523 3.67-10.495 0-2.31-.61-4.253-1.826-5.827-1.217-1.576-2.717-2.363-4.5-2.363-1.808 0-3.376.734-4.704 2.203-1.328 1.47-1.992 3.215-1.992 5.23 0 1.428.34 2.74 1.015 3.948-1.34-.244-2.23-.606-2.68-1.086-.45-.48-.67-1.33-.67-2.548 0-1.585.38-3.245 1.147-4.98zm12.367 202.504c-.355-.75-.532-1.46-.532-2.127 0-2.34 1.9-4.49 5.696-6.44 3.79-1.95 7.96-2.92 12.5-2.92 2.534 0 4.583.486 6.144 1.455 1.56.968 2.342 2.236 2.342 3.804 0 2.904-2.067 5.632-6.198 8.18 2.412.656 4.304 1.644 5.675 2.967 1.37 1.325 2.055 2.825 2.055 4.5 0 3.3-1.793 6.11-5.38 8.43-3.585 2.317-7.93 3.476-13.03 3.476-3.75 0-5.623-1.18-5.623-3.537 0-.56.205-1.868.614-3.927l2.885-14.5c.233-1.16.35-1.986.35-2.477 0-.478-.165-.915-.49-1.31 1.8-.68 3.06-1.023 3.78-1.023.848 0 1.27.485 1.27 1.453 0 .246-.224 1.446-.674 3.6l-2.68 13.438c-.3 1.558-.45 2.57-.45 3.05 0 1.72 1.638 2.578 4.91 2.578 2.687 0 4.988-.775 6.904-2.323 1.913-1.547 2.87-3.405 2.87-5.573 0-1.69-.53-3.012-1.594-3.966-1.065-.96-2.84-1.695-5.32-2.21-.886.35-1.854.53-2.904.53-.353 0-.797-.06-1.33-.185.397-1.46.89-2.44 1.485-2.947.595-.504 1.55-.756 2.875-.756.34 0 .8.02 1.37.06 2.907-2.126 4.36-4.233 4.36-6.32 0-2.467-1.88-3.7-5.646-3.7-6.095 0-11.508 2.91-16.24 8.732z" stroke="#000"/><path d="M538.753 293.224h34.907" fill="none" stroke="#000" stroke-width="4.334"/><path d="M324.087 546.994l-22.124 35.963m15.657-35.963l-22.124 35.963m15.658-35.963l-22.124 35.963m41.524-35.963l-22.124 35.963m28.59-35.963l-22.124 35.963m28.688-35.154l-22.124 35.963m28.59-35.963l-22.123 35.963m28.59-35.963l-22.124 35.963m28.494-36.772l-22.124 35.963m28.59-35.963l-22.123 35.963m-42.543-35.963l-22.124 35.963m9.19-35.963c-18.244 29.796-18.94 30.592-18.94 30.592m12.475-30.592c-17.15 26.812-17.55 27.608-17.55 27.608m10.685-27.31l-15.56 24.525m35.357-24.823c-19.836 32.184-20.632 33.278-20.632 33.278" fill="none" stroke="#000" stroke-width="3.645"/><g stroke="#000"><path d="M478.352 116.28l14.55-14.55" fill="none" stroke-width="3.266"/><path d="M433.69 163.045l-12.934 12.934" fill="none" stroke-width="4.074"/><path d="M481.093 97.615l-21.945 37.7 37.137-20.257h-16.88l1.688-17.443zm-66.68 68.365l37.7-21.944-20.255 37.137v-16.88l-17.444 1.688z" fill-rule="evenodd"/></g><path d="M512.447 92.536c0 3.996 1.69 5.993 5.073 5.993 2.93 0 6.163-1.4 9.695-4.2 3.53-2.798 6.715-6.48 9.55-11.048l1.74.962c-2.673 4.99-6.146 9.12-10.42 12.394-4.276 3.272-8.33 4.91-12.16 4.91-2.455 0-4.395-.79-5.82-2.374-1.425-1.58-2.137-3.742-2.137-6.483 0-3.954 1.292-7.336 3.876-10.145 2.584-2.81 5.696-4.21 9.337-4.21 1.76 0 3.17.442 4.23 1.33 1.06.884 1.59 2.07 1.59 3.56 0 2.44-1.47 4.6-4.408 6.48-2.94 1.884-6.317 2.824-10.135 2.824zm.164-1.963c2.85-.15 5.3-.968 7.34-2.455 2.04-1.486 3.06-3.204 3.06-5.154 0-1.745-.776-2.618-2.33-2.618-1.855 0-3.566.996-5.134 2.986-1.57 1.99-2.544 4.405-2.925 7.24z" stroke="#000"/><path d="M262.222 544.297c-11.222 18.802-11.824 19.63-11.824 19.63" fill="none" stroke="#000" stroke-width="3.645"/><g stroke="#000"><path d="M378.854 544.134c-22.124 35.964-23.02 37.754-23.02 37.754l-.696.895" fill="none" stroke-width="3.645"/><path d="M377.272 543.687h3.382l-1.193 2.014-1.19-.19" fill-rule="evenodd"/></g><path d="M347.894 291.494l-49.263.79 7.24 13.305 42.03-14.1z" fill-rule="evenodd" stroke="#000" stroke-width=".972"/><g stroke="#000"><path d="M335.97 285.865c-.655 5.05-7.22 8.08-15.54 12.405" fill="none" stroke-width="4.161"/><path d="M342.95 289.637c-.36.58-.607 1.33-.992 1.788l3.106.387c.424-.17.546-.64.713-1.066l-2.826-1.11z" fill-rule="evenodd" stroke-width=".864"/></g><path d="M266.522 547.016c-11.222 18.8-11.824 19.63-11.824 19.63m16.4-17.243c-11.223 18.8-11.824 19.63-11.824 19.63" fill="none" stroke="#000" stroke-width="3.645"/></svg>