<svg xmlns="http://www.w3.org/2000/svg" version="1" width="600" height="600"><path d="M341.2 282.674a34.5 34.5 0 0 1-1.355 6.245c7.685-24.457-13.947-44.355-36.093-45.028-29.16-.887-50.43 25.928-49.959 53.795.623 36.77 34.652 63.571 70.143 61.93 44.373-2.053 76.356-43.381 73.503-86.49-3.44-51.973-52.114-89.166-102.836-85.075-59.575 4.804-101.992 60.85-96.65 119.182 6.153 67.176 69.586 114.828 135.53 108.223 74.778-7.49 127.671-78.323 119.796-151.876-8.82-82.38-87.062-140.52-168.223-131.369-89.982 10.145-153.373 95.8-142.942 184.57 11.466 97.584 104.54 166.228 200.916 154.515 105.187-12.784 179.087-113.28 166.088-217.263-14.099-112.79-122.02-191.948-233.61-177.662C155.117 91.783 70.7 207.13 86.275 326.327c14.584 111.622 111.095 197.293 222.85 202.647" fill="none" stroke="#000" stroke-width="13.326" stroke-linecap="round" stroke-linejoin="bevel"/><path d="M309.633 288.14c-8.331 3.454-.375 13.832 4.756 15.636 8.248 2.9 15.91-.828 21.017-6.997 3.349-4.046 5.598-9.141 6.193-14.105 2.576-21.516-17.222-38.168-37.45-38.783-29.16-.887-50.828 25.928-50.356 53.795.623 36.77 34.652 63.571 70.143 61.93 44.373-2.053 76.356-43.381 73.503-86.49-3.44-51.973-52.114-89.166-102.836-85.075-59.575 4.804-101.992 60.85-96.65 119.182 6.153 67.176 69.586 114.828 135.53 108.223 74.778-7.49 127.671-78.323 119.796-151.876-8.82-82.38-87.062-140.52-168.223-131.369-89.982 10.145-153.373 95.8-142.942 184.57 11.466 97.584 104.54 166.228 200.916 154.515 105.187-12.784 179.087-113.28 166.088-217.263-14.099-112.79-122.02-191.948-233.61-177.662C155.117 91.783 70.7 207.13 86.275 326.327c14.584 111.622 111.095 197.293 222.85 202.647" fill="none" stroke="#fff" stroke-width="5.178" stroke-linecap="round" stroke-linejoin="bevel"/><path stroke="#000" stroke-width="3.19" stroke-linecap="round" stroke-linejoin="bevel" stroke-dashoffset="10" d="M304.472 500.542h21.653v45.984h-21.653z"/><path d="M370.84 543.246v7.751l-34.78-.736-11.067 8.826H302.86l-56.185-11.768v-4.073H370.84z" fill-rule="evenodd" stroke="#000" stroke-width=".3"/><path d="M306.96 276.957v49.456" fill="none" stroke="#000" stroke-width="5.327"/><path d="M306.986 158.035v98.536m0-238.166v98.536" fill="none" stroke="#000" stroke-width="5.38"/><path d="M306.96 136.682v.378" fill="none" stroke="#000" stroke-width=".466"/><path d="M306.986 333.024v115.087" fill="none" stroke="#000" stroke-width="5.814"/><path d="M307.203 454.596v81.857" fill="none" stroke="#000" stroke-width="4.904"/><path d="M25.036 293.224h87.269m17.453 0h34.908m17.454 0h87.268" fill="none" stroke="#000" stroke-width="4.334"/><path d="M286.595 293.224h61.868" fill="none" stroke="#000" stroke-width="4.079"/><path d="M374.11 293.224h104.723m17.454 0h34.907" fill="none" stroke="#000" stroke-width="4.334"/><path d="M328.77 312.694c1.905-2.545 4.42-3.817 7.543-3.817 2.668 0 4.87.968 6.603 2.904 1.734 1.937 2.6 4.393 2.6 7.369 0 4.636-1.862 8.86-5.588 12.671-3.726 3.812-7.851 5.718-12.376 5.718-3.258 0-5.948-1.08-8.07-3.237-2.12-2.158-3.18-4.891-3.18-8.199 0-3.59 1.207-6.683 3.623-9.277 2.417-2.595 5.365-3.972 8.844-4.132zm-1.402 2.01c-2.19.53-3.917 1.704-5.183 3.524-1.267 1.82-1.9 4.057-1.9 6.713 0 2.964.86 5.408 2.582 7.332 1.722 1.924 3.916 2.886 6.585 2.886 3.197 0 6.019-1.512 8.466-4.537 2.446-3.025 3.67-6.523 3.67-10.495 0-2.311-.609-4.254-1.826-5.828-1.217-1.574-2.717-2.36-4.5-2.36-1.808 0-3.376.734-4.704 2.203-1.328 1.47-1.992 3.213-1.992 5.23a7.93 7.93 0 0 0 1.015 3.946c-1.34-.246-2.235-.608-2.684-1.088-.449-.48-.673-1.328-.673-2.545 0-1.586.381-3.246 1.144-4.98zm12.367 202.504c-.355-.75-.532-1.459-.532-2.127 0-2.345 1.899-4.493 5.696-6.443 3.798-1.95 7.967-2.925 12.508-2.925 2.536 0 4.585.484 6.146 1.453 1.561.968 2.342 2.236 2.342 3.804 0 2.904-2.066 5.632-6.197 8.181 2.413.655 4.305 1.643 5.676 2.966 1.37 1.323 2.055 2.823 2.055 4.5 0 3.3-1.793 6.109-5.38 8.427-3.585 2.318-7.928 3.477-13.028 3.477-3.75 0-5.625-1.18-5.625-3.539 0-.559.205-1.868.614-3.927l2.884-14.501c.232-1.16.347-1.984.347-2.475 0-.477-.163-.914-.49-1.31 1.8-.68 3.06-1.022 3.783-1.022.846 0 1.269.484 1.269 1.452 0 .246-.225 1.446-.675 3.6l-2.68 13.438c-.3 1.555-.45 2.57-.45 3.048 0 1.718 1.636 2.577 4.91 2.577 2.685 0 4.986-.774 6.902-2.322 1.916-1.547 2.874-3.405 2.874-5.573 0-1.69-.532-3.014-1.595-3.968-1.064-.955-2.837-1.69-5.318-2.21-.887.355-1.855.533-2.905.533-.354 0-.798-.062-1.33-.184.396-1.46.89-2.441 1.484-2.946.593-.504 1.55-.756 2.873-.756.341 0 .798.02 1.37.06 2.905-2.126 4.357-4.233 4.357-6.32 0-2.467-1.881-3.701-5.645-3.701-6.095 0-11.508 2.91-16.24 8.733z" stroke="#000"/><path d="M538.753 293.224h34.907" fill="none" stroke="#000" stroke-width="4.334"/><path d="M324.087 546.994l-22.124 35.963m15.657-35.963l-22.124 35.963m15.658-35.963l-22.124 35.963m41.524-35.963l-22.124 35.963m28.59-35.963l-22.124 35.963m28.688-35.154l-22.124 35.963m28.591-35.963l-22.124 35.963m28.591-35.963l-22.125 35.963m28.494-36.772l-22.124 35.963m28.591-35.963l-22.124 35.963m-42.543-35.963l-22.124 35.963m9.191-35.963c-18.245 29.796-18.941 30.592-18.941 30.592m12.475-30.592c-17.151 26.812-17.55 27.608-17.55 27.608m10.685-27.31l-15.56 24.525m35.357-24.823c-19.836 32.184-20.632 33.278-20.632 33.278" fill="none" stroke="#000" stroke-width="3.645"/><g stroke="#000"><path d="M478.352 116.28l14.55-14.549" fill="none" stroke-width="3.266"/><path d="M433.69 163.045l-12.934 12.934" fill="none" stroke-width="4.074"/><path d="M481.093 97.615l-21.945 37.7 37.137-20.257h-16.88l1.688-17.443zm-66.679 68.366l37.7-21.945-20.256 37.137v-16.88l-17.444 1.688z" fill-rule="evenodd"/></g><path d="M512.447 92.536c0 3.996 1.69 5.993 5.073 5.993 2.931 0 6.163-1.397 9.695-4.193 3.531-2.795 6.715-6.477 9.551-11.045l1.739.962c-2.673 4.99-6.146 9.122-10.421 12.395-4.275 3.272-8.328 4.908-12.16 4.908-2.454 0-4.394-.79-5.819-2.372-1.425-1.582-2.137-3.743-2.137-6.484 0-3.954 1.292-7.336 3.876-10.145 2.584-2.809 5.696-4.213 9.337-4.213 1.759 0 3.167.443 4.223 1.33 1.057.885 1.586 2.072 1.586 3.558 0 2.44-1.47 4.602-4.408 6.484-2.939 1.882-6.317 2.822-10.135 2.822zm.164-1.963c2.85-.15 5.294-.968 7.332-2.455 2.039-1.486 3.058-3.204 3.058-5.154 0-1.745-.777-2.618-2.332-2.618-1.854 0-3.565.996-5.133 2.986-1.569 1.991-2.544 4.405-2.925 7.24z" stroke="#000"/><path d="M262.222 544.297c-11.222 18.802-11.824 19.63-11.824 19.63" fill="none" stroke="#000" stroke-width="3.645"/><g stroke="#000"><path d="M378.854 544.134c-22.124 35.964-23.02 37.754-23.02 37.754l-.696.895" fill="none" stroke-width="3.645"/><path d="M377.272 543.687h3.382l-1.193 2.014-1.194-.2" fill-rule="evenodd"/></g><path d="M347.894 291.494l-49.263.79 7.24 13.305 42.023-14.095z" fill-rule="evenodd" stroke="#000" stroke-width=".972"/><g stroke="#000"><path d="M335.969 285.865c-.654 5.049-7.218 8.08-15.539 12.405" fill="none" stroke-width="4.161"/><path d="M342.95 289.637c-.359.58-.607 1.329-.992 1.788l3.106.387c.424-.171.546-.641.713-1.066l-2.826-1.11z" fill-rule="evenodd" stroke-width=".864"/></g><path d="M266.522 547.016c-11.222 18.801-11.824 19.629-11.824 19.629m16.4-17.242c-11.223 18.801-11.824 19.63-11.824 19.63" fill="none" stroke="#000" stroke-width="3.645"/></svg>