<?xml version="1.0" encoding="UTF-8"?><!DOCTYPE svg PUBLIC "-//W3C//DTD SVG 1.1//EN" "http://www.w3.org/Graphics/SVG/1.1/DTD/svg11.dtd"><svg xmlns="http://www.w3.org/2000/svg"><symbol id="arrow-left" viewBox="0 0 17 19"><path d="M15.83 17.097c-.08 0-.16-.02-.232-.06l-13.89-7.56c-.156-.085-.255-.25-.255-.43s.1-.342.255-.428l13.89-7.56c.15-.086.335-.08.483.006.15.088.24.247.24.42v15.12c0 .172-.09.332-.24.42-.074.045-.16.07-.25.07zM2.964 9.047l12.38 6.74V2.31L2.964 9.048z"/></symbol><symbol id="arrow-right" viewBox="0 0 17 19"><path d="M1.94 1c.08 0 .16.02.234.06l13.89 7.56c.156.086.255.25.255.43s-.1.343-.257.43l-13.89 7.56c-.15.082-.335.078-.483-.01-.146-.088-.237-.247-.237-.42V1.488c0-.172.09-.332.238-.42.08-.045.165-.068.25-.068zm12.87 8.05L2.43 2.31v13.478l12.38-6.74z"/></symbol><symbol id="arrow462" viewBox="0 0 216 146"><path d="M165.316 60.412c-1.766-2.037-4.06-3.055-6.885-3.055h-57.353l23.87-23.872c2.065-2.063 3.097-4.535 3.097-7.414 0-2.876-1.03-5.35-3.096-7.412l-6.11-6.03c-2.063-2.062-4.508-3.095-7.332-3.095-2.88 0-5.35 1.032-7.414 3.096l-53.04 52.956c-2.01 2.118-3.014 4.59-3.014 7.414 0 2.88 1.005 5.323 3.015 7.332l53.04 53.12c2.117 2.01 4.588 3.017 7.413 3.017 2.878 0 5.322-1.008 7.332-3.018l6.11-6.19c2.064-1.956 3.096-4.4 3.096-7.333 0-2.935-1.03-5.38-3.096-7.335l-23.87-23.953h57.354c2.826 0 5.12-1.018 6.886-3.055 1.765-2.037 2.647-4.494 2.647-7.373v-10.43c0-2.878-.882-5.336-2.647-7.373z"/></symbol><symbol id="arrow465" viewBox="0 0 216 146"><path d="M164.95 65.668l-53.04-53.04c-2.062-2.063-4.534-3.095-7.413-3.095-2.825 0-5.27 1.032-7.333 3.096l-6.11 6.11c-2.064 1.952-3.096 4.4-3.096 7.33s1.032 5.376 3.096 7.332l23.872 23.953H57.568c-2.824 0-5.12 1.018-6.884 3.055s-2.648 4.496-2.648 7.374v10.43c0 2.878.883 5.335 2.648 7.372s4.06 3.055 6.884 3.055h57.357l-23.872 23.875c-2.064 2.062-3.096 4.534-3.096 7.413s1.032 5.35 3.096 7.413l6.11 6.11c2.12 2.01 4.563 3.017 7.333 3.017 2.825 0 5.297-1.005 7.414-3.015l53.04-53.04c2.01-2.01 3.015-4.48 3.015-7.41 0-2.988-1.006-5.433-3.015-7.333z"/></symbol><symbol id="arrow466" viewBox="0 0 216 146"><path d="M168.452 62.53l-6.11-6.11c-2.117-2.01-4.59-3.015-7.412-3.015-2.88 0-5.324 1.005-7.334 3.015l-23.953 23.953V23.017c0-2.825-1.033-5.27-3.097-7.333s-4.508-3.096-7.332-3.096h-10.43c-2.823 0-5.268 1.033-7.33 3.096-2.066 2.064-3.097 4.508-3.097 7.333v57.356L68.404 56.42c-2.01-2.01-4.454-3.015-7.333-3.015-2.82 0-5.292 1.005-7.41 3.015l-6.03 6.11c-2.063 2.063-3.095 4.536-3.095 7.414 0 2.934 1.033 5.378 3.096 7.333l53.04 53.12c2.01 2.01 4.453 3.015 7.33 3.015 2.826 0 5.298-1.005 7.415-3.016l53.04-53.12c2.01-2.01 3.015-4.453 3.015-7.332 0-2.824-1.008-5.295-3.018-7.414z"/></symbol><symbol id="arrow467" viewBox="0 0 216 146"><path d="M168.452 69.09l-53.04-53.04c-2.008-2.01-4.478-3.015-7.412-3.015-2.987 0-5.432 1.005-7.333 3.015l-53.04 53.04c-2.063 2.063-3.095 4.535-3.095 7.414 0 2.824 1.033 5.268 3.096 7.332l6.11 6.11c1.956 2.063 4.4 3.097 7.333 3.097 2.938 0 5.38-1.034 7.338-3.097L92.36 66.074v57.357c0 2.828 1.017 5.12 3.054 6.89 2.037 1.765 4.495 2.647 7.373 2.647h10.43c2.878 0 5.335-.882 7.372-2.647s3.053-4.063 3.053-6.886v-57.36l23.953 23.873c1.955 2.063 4.4 3.097 7.334 3.097 2.88 0 5.35-1.034 7.415-3.097l6.11-6.11c2.01-2.12 3.015-4.562 3.015-7.332 0-2.825-1.006-5.296-3.016-7.415z"/></symbol><symbol id="close" viewBox="0 0 26 26"><path d="M1 1l23.89 23.892M24.89 1L1 24.892" fill="none" stroke="#6E6F72" stroke-miterlimit="10"/></symbol><symbol id="delete" viewBox="0 0 32 32"><circle stroke="#FFF" stroke-miterlimit="10" cx="16" cy="16" r="15"/><path stroke="#FFF" stroke-width="2" stroke-miterlimit="10" d="M24.418 23.5L8.5 7.583m0 15.917L24.418 7.583"/></symbol><symbol id="menu" viewBox="0 0 36 27"><path fill="#A6A8AC" d="M.84 1h34.32v5H.84zm0 10h34.32v5H.84zm0 10h34.32v5H.84z"/></symbol><symbol id="minus" viewBox="0 0 32 32"><circle stroke="#000" stroke-miterlimit="10" cx="16" cy="16" r="15"/><path stroke="#000" stroke-miterlimit="10" d="M24.938 16H7.062"/></symbol><symbol id="plus" viewBox="0 0 32 32"><circle stroke="#000" stroke-miterlimit="10" cx="16" cy="16" r="15"/><path stroke="#000" stroke-miterlimit="10" d="M16 7.063v17.875M24.938 16H7.062"/></symbol></svg>