<svg xmlns="http://www.w3.org/2000/svg" width="216" height="146" viewBox="0 0 216 146"><path d="M164.95 65.668l-53.04-53.04c-2.062-2.063-4.534-3.095-7.413-3.095-2.825 0-5.27 1.032-7.333 3.096l-6.11 6.11c-2.064 1.952-3.096 4.4-3.096 7.33s1.032 5.376 3.096 7.332l23.872 23.953H57.568c-2.824 0-5.12 1.018-6.884 3.055s-2.648 4.496-2.648 7.374v10.43c0 2.878.883 5.335 2.648 7.372s4.06 3.055 6.884 3.055h57.357l-23.872 23.875c-2.064 2.062-3.096 4.534-3.096 7.413s1.032 5.35 3.096 7.413l6.11 6.11c2.12 2.01 4.563 3.017 7.333 3.017 2.825 0 5.297-1.005 7.414-3.015l53.04-53.04c2.01-2.01 3.015-4.48 3.015-7.41 0-2.988-1.006-5.433-3.015-7.333z"/></svg>