<svg xmlns="http://www.w3.org/2000/svg" width="216" height="146" viewBox="0 0 216 146"><path d="M168.452 62.53l-6.11-6.11c-2.117-2.01-4.59-3.015-7.412-3.015-2.88 0-5.324 1.005-7.334 3.015l-23.953 23.953V23.017c0-2.825-1.033-5.27-3.097-7.333s-4.508-3.096-7.332-3.096h-10.43c-2.823 0-5.268 1.033-7.33 3.096-2.066 2.064-3.097 4.508-3.097 7.333v57.356L68.404 56.42c-2.01-2.01-4.454-3.015-7.333-3.015-2.82 0-5.292 1.005-7.41 3.015l-6.03 6.11c-2.063 2.063-3.095 4.536-3.095 7.414 0 2.934 1.033 5.378 3.096 7.333l53.04 53.12c2.01 2.01 4.453 3.015 7.33 3.015 2.826 0 5.298-1.005 7.415-3.016l53.04-53.12c2.01-2.01 3.015-4.453 3.015-7.332 0-2.824-1.008-5.295-3.018-7.414z"/></svg>