<svg xmlns="http://www.w3.org/2000/svg" width="216" height="146" viewBox="0 0 216 146"><path d="M168.452 69.09l-53.04-53.04c-2.008-2.01-4.478-3.015-7.412-3.015-2.987 0-5.432 1.005-7.333 3.015l-53.04 53.04c-2.063 2.063-3.095 4.535-3.095 7.414 0 2.824 1.033 5.268 3.096 7.332l6.11 6.11c1.956 2.063 4.4 3.097 7.333 3.097 2.938 0 5.38-1.034 7.338-3.097L92.36 66.074v57.357c0 2.828 1.017 5.12 3.054 6.89 2.037 1.765 4.495 2.647 7.373 2.647h10.43c2.878 0 5.335-.882 7.372-2.647s3.053-4.063 3.053-6.886v-57.36l23.953 23.873c1.955 2.063 4.4 3.097 7.334 3.097 2.88 0 5.35-1.034 7.415-3.097l6.11-6.11c2.01-2.12 3.015-4.562 3.015-7.332 0-2.825-1.006-5.296-3.016-7.415z"/></svg>