<svg xmlns="http://www.w3.org/2000/svg" width="216" height="146" viewBox="0 0 216 146"><path d="M165.316 60.412c-1.766-2.037-4.06-3.055-6.885-3.055h-57.353l23.87-23.872c2.065-2.063 3.097-4.535 3.097-7.414 0-2.876-1.03-5.35-3.096-7.412l-6.11-6.03c-2.063-2.062-4.508-3.095-7.332-3.095-2.88 0-5.35 1.032-7.414 3.096l-53.04 52.956c-2.01 2.118-3.014 4.59-3.014 7.414 0 2.88 1.005 5.323 3.015 7.332l53.04 53.12c2.117 2.01 4.588 3.017 7.413 3.017 2.878 0 5.322-1.008 7.332-3.018l6.11-6.19c2.064-1.956 3.096-4.4 3.096-7.333 0-2.935-1.03-5.38-3.096-7.335l-23.87-23.953h57.354c2.826 0 5.12-1.018 6.886-3.055 1.765-2.037 2.647-4.494 2.647-7.373v-10.43c0-2.878-.882-5.336-2.647-7.373z"/></svg>