<svg xmlns="http://www.w3.org/2000/svg" width="48" height="48" viewBox="0 0 48 48"><path d="M24.088 1.23c12.424 0 22.53 10.106 22.53 22.53 0 12.424-10.106 22.53-22.53 22.53S1.558 36.185 1.558 23.76c0-12.424 10.106-22.53 22.53-22.53zm0 44.06c11.873 0 21.53-9.657 21.53-21.53 0-11.873-9.657-21.53-21.53-21.53-11.872 0-21.53 9.657-21.53 21.53 0 11.872 9.658 21.53 21.53 21.53z"/><path d="M24.088 13.65c.155 0 .302.073.397.196l12.453 16.236c.168.22.126.532-.094.7-.22.168-.533.126-.7-.092L24.087 14.972 12.03 30.69c-.168.22-.482.26-.7.093-.22-.17-.26-.482-.092-.7L23.69 13.845c.096-.123.243-.195.398-.195z"/></svg>