<svg id="Layer_1" xmlns="http://www.w3.org/2000/svg" viewBox="0 0 50 50"><style>.st0{fill:#c42c28}</style><path class="st0" d="M11.047 40.93L9.07 36.902c1.708-.537 3.137-1.476 4.285-2.82 1.146-1.342 1.941-2.856 2.38-4.541s.732-3.063.879-4.138c.146-1.073.22-2.148.22-3.223H7.458V9.07h13.55c0 11.865-.611 20.008-1.831 24.426-1.221 4.42-3.931 6.898-8.13 7.434zm21.534 0l-1.978-4.028c1.708-.537 3.137-1.476 4.285-2.82 1.146-1.342 1.941-2.856 2.38-4.541s.732-3.063.879-4.138c.146-1.073.22-2.148.22-3.223h-9.375V9.07h13.55c0 11.865-.611 20.008-1.831 24.426-1.222 4.42-3.932 6.898-8.13 7.434z"/></svg>