<svg id="Layer_1" xmlns="http://www.w3.org/2000/svg" viewBox="0 0 50 50"><style>.st0{fill:#c42c28}</style><path class="st0" d="M21.008 40.93H7.458c0-11.865.61-20.006 1.831-24.426 1.22-4.418 3.93-6.896 8.13-7.434l1.978 4.028a9.124 9.124 0 0 0-4.285 2.82c-1.148 1.344-1.941 2.856-2.38 4.541s-.732 3.065-.879 4.138a23.92 23.92 0 0 0-.22 3.223h9.375v13.11zm21.534 0h-13.55c0-11.865.61-20.006 1.831-24.426 1.22-4.418 3.93-6.896 8.13-7.434l1.978 4.028a9.124 9.124 0 0 0-4.285 2.82c-1.148 1.344-1.941 2.856-2.38 4.541s-.732 3.065-.879 4.138a23.92 23.92 0 0 0-.22 3.223h9.375v13.11z"/></svg>