<?xml version="1.0" encoding="utf-8"?>
<!-- Generator: Adobe Illustrator 21.0.0, SVG Export Plug-In . SVG Version: 6.00 Build 0)  -->
<svg version="1.1" id="Layer_1" xmlns="http://www.w3.org/2000/svg" xmlns:xlink="http://www.w3.org/1999/xlink" x="0px" y="0px"
	 viewBox="0 0 50 50" style="enable-background:new 0 0 50 50;" xml:space="preserve">
<style type="text/css">
	.st0{fill:#C42C28;}
</style>
<path class="st0" d="M11.047,40.93L9.07,36.902c1.708-0.537,3.137-1.476,4.285-2.82c1.146-1.342,1.941-2.856,2.38-4.541
	s0.732-3.063,0.879-4.138c0.146-1.073,0.22-2.148,0.22-3.223H7.458V9.07h13.55c0,11.865-0.611,20.008-1.831,24.426
	C17.956,37.916,15.246,40.394,11.047,40.93z M32.581,40.93l-1.978-4.028c1.708-0.537,3.137-1.476,4.285-2.82
	c1.146-1.342,1.941-2.856,2.38-4.541s0.732-3.063,0.879-4.138c0.146-1.073,0.22-2.148,0.22-3.223h-9.375V9.07h13.55
	c0,11.865-0.611,20.008-1.831,24.426C39.489,37.916,36.779,40.394,32.581,40.93z"/>
<g>
</g>
<g>
</g>
<g>
</g>
<g>
</g>
<g>
</g>
<g>
</g>
</svg>
