<?xml version="1.0" encoding="utf-8"?>
<!-- Generator: Adobe Illustrator 21.0.0, SVG Export Plug-In . SVG Version: 6.00 Build 0)  -->
<svg version="1.1" id="Layer_1" xmlns="http://www.w3.org/2000/svg" xmlns:xlink="http://www.w3.org/1999/xlink" x="0px" y="0px"
	 viewBox="0 0 50 50" style="enable-background:new 0 0 50 50;" xml:space="preserve">
<style type="text/css">
	.st0{fill:#C42C28;}
</style>
<path class="st0" d="M21.008,40.93H7.458c0-11.865,0.61-20.006,1.831-24.426c1.22-4.418,3.93-6.896,8.13-7.434l1.978,4.028
	c-1.71,0.538-3.138,1.478-4.285,2.82c-1.148,1.344-1.941,2.856-2.38,4.541S12,23.524,11.853,24.597
	c-0.146,1.075-0.22,2.149-0.22,3.223h9.375V40.93z M42.542,40.93h-13.55c0-11.865,0.61-20.006,1.831-24.426
	c1.22-4.418,3.93-6.896,8.13-7.434l1.978,4.028c-1.71,0.538-3.138,1.478-4.285,2.82c-1.148,1.344-1.941,2.856-2.38,4.541
	s-0.732,3.065-0.879,4.138c-0.146,1.075-0.22,2.149-0.22,3.223h9.375V40.93z"/>
<g>
</g>
<g>
</g>
<g>
</g>
<g>
</g>
<g>
</g>
<g>
</g>
</svg>
